<svg width="1728" height="1117" viewBox="0 0 1728 1117" fill="none" xmlns="http://www.w3.org/2000/svg">
<g>
<rect x="346.738" y="-561.149" width="2" height="1884" transform="rotate(15 346.738 -561.149)" fill="#D9D9D9"/>
<rect x="857.713" y="-424.234" width="2" height="1884" transform="rotate(15 857.713 -424.234)" fill="#D9D9D9"/>
<rect x="1494.26" y="-253.672" width="2" height="1884" transform="rotate(15 1494.26 -253.672)" fill="#D9D9D9"/>
<rect x="597.879" y="-493.856" width="2" height="1884" transform="rotate(15 597.879 -493.856)" fill="#D9D9D9"/>
<rect x="1108.85" y="-356.941" width="2" height="1884" transform="rotate(15 1108.85 -356.941)" fill="#D9D9D9"/>
<rect x="1745.4" y="-186.379" width="2" height="1884" transform="rotate(15 1745.4 -186.379)" fill="#D9D9D9"/>
<rect x="472.309" y="-527.503" width="2" height="1884" transform="rotate(15 472.309 -527.503)" fill="#D9D9D9"/>
<rect x="983.283" y="-390.587" width="2" height="1884" transform="rotate(15 983.283 -390.587)" fill="#D9D9D9"/>
<rect x="1619.83" y="-220.026" width="2" height="1884" transform="rotate(15 1619.83 -220.026)" fill="#D9D9D9"/>
<rect x="723.449" y="-460.21" width="2" height="1884" transform="rotate(15 723.449 -460.21)" fill="#D9D9D9"/>
<rect x="1359.99" y="-289.648" width="2" height="1884" transform="rotate(15 1359.99 -289.648)" fill="#D9D9D9"/>
<rect x="1234.42" y="-323.294" width="2" height="1884" transform="rotate(15 1234.42 -323.294)" fill="#D9D9D9"/>
<rect x="1869.42" y="-146.937" width="2" height="1884" transform="rotate(15 1869.42 -146.937)" fill="#D9D9D9"/>
<rect x="219.615" y="-589" width="2" height="1884" transform="rotate(15 219.615 -589)" fill="#D9D9D9"/>
<rect x="1994.99" y="-113.291" width="2" height="1884" transform="rotate(15 1994.99 -113.291)" fill="#D9D9D9"/>
<rect x="1729.24" y="452.118" width="2.00005" height="1728" transform="rotate(90 1729.24 452.118)" fill="#D9D9D9"/>
<rect x="1729.24" y="1111.12" width="2.00005" height="1728" transform="rotate(90 1729.24 1111.12)" fill="#D9D9D9"/>
<rect x="1729.24" y="183.118" width="2.00005" height="1728" transform="rotate(90 1729.24 183.118)" fill="#D9D9D9"/>
<rect x="1729.24" y="712.118" width="2.00005" height="1728" transform="rotate(90 1729.24 712.118)" fill="#D9D9D9"/>
<rect x="1729.24" y="53.1179" width="2.00005" height="1728" transform="rotate(90 1729.24 53.1179)" fill="#D9D9D9"/>
<rect x="1729.24" y="582.118" width="2.00005" height="1728" transform="rotate(90 1729.24 582.118)" fill="#D9D9D9"/>
<rect x="1729.24" y="313.118" width="2.00005" height="1728" transform="rotate(90 1729.24 313.118)" fill="#D9D9D9"/>
<rect x="1729.24" y="972.118" width="2.00005" height="1728" transform="rotate(90 1729.24 972.118)" fill="#D9D9D9"/>
<rect x="1729.24" y="842.118" width="2.00005" height="1728" transform="rotate(90 1729.24 842.118)" fill="#D9D9D9"/>
</g>
</svg>
